<svg width="23" height="21" viewBox="0 0 23 21" fill="none" xmlns="http://www.w3.org/2000/svg">
<path d="M12.0803 4.50676C12.5131 4.92843 12.9512 5.34288 13.3945 5.7501C13.4786 5.82695 13.5735 5.84403 13.6793 5.80133C14.3381 5.53335 15.0034 5.51266 15.6753 5.73926C15.9328 5.82662 16.1528 5.94977 16.3354 6.10872C16.499 6.25059 16.6398 6.45059 16.7581 6.70872C17.2329 7.7491 16.9952 8.64532 16.0448 9.39737C15.7768 9.60886 15.4175 9.73563 14.967 9.77767C14.45 9.82561 13.989 9.73235 13.5837 9.49786C13.1916 9.27127 12.8891 8.94286 12.6763 8.51265C12.3578 7.87029 12.3949 7.20329 12.7877 6.51167C12.8082 6.47582 12.8152 6.4337 12.8072 6.39301C12.7993 6.35232 12.7769 6.31576 12.7443 6.29C11.8103 5.55634 10.9617 4.77539 10.1985 3.94716C10.1888 3.93679 10.1759 3.92998 10.1619 3.92783C10.148 3.92568 10.1338 3.92833 10.1217 3.93533C9.33546 4.37934 8.53842 4.38525 7.73054 3.95307C7.70596 3.93985 7.6777 3.93483 7.64976 3.93872C7.62183 3.94261 7.59563 3.95521 7.57487 3.97474L5.05469 6.34813C5.0354 6.36622 5.02248 6.39003 5.01786 6.41597C5.01324 6.44191 5.01718 6.46858 5.02908 6.49197C5.15518 6.74287 5.24615 6.98655 5.30198 7.223C5.36044 7.47324 5.36635 7.72907 5.31971 7.99048C5.20215 8.65124 4.84451 9.15304 4.24681 9.49589C3.96373 9.65813 3.65568 9.75238 3.32268 9.77865C2.99362 9.80492 2.67835 9.78555 2.37687 9.72052C1.83566 9.60427 1.42844 9.2913 1.15521 8.78161C0.654716 7.84763 0.741087 6.96093 1.41432 6.12153C1.50364 6.00921 1.60085 5.92481 1.70594 5.86833C1.73353 5.85388 1.85011 5.80724 2.05569 5.72843C2.63697 5.50774 3.22679 5.49197 3.82514 5.68114C3.82974 5.68245 3.89509 5.71036 4.0212 5.76488C4.20642 5.84435 4.37949 5.81447 4.54041 5.67522C5.12891 5.16488 5.68917 4.62498 6.22119 4.05553C6.44253 3.81776 6.68457 3.57409 6.94729 3.3245C6.96399 3.3083 6.9746 3.28687 6.97729 3.26387C6.97999 3.24087 6.97461 3.21773 6.96207 3.19839C6.6665 2.73665 6.56733 2.25981 6.66454 1.76786C6.75189 1.32582 6.97291 0.941589 7.32759 0.615154C7.67701 0.293974 8.09901 0.0972582 8.59359 0.025009C9.15188 -0.0557788 9.68981 0.0591631 10.2074 0.369835C10.2947 0.42238 10.4271 0.553742 10.6044 0.763921C11.2409 1.51794 11.3072 2.3383 10.8034 3.22499C10.7923 3.24445 10.7882 3.26719 10.792 3.2893C10.7958 3.31141 10.8071 3.33152 10.8241 3.34617C11.2412 3.71005 11.6599 4.09691 12.0803 4.50676Z" fill="white"/>
<path d="M16.7157 3.37869L19.2655 5.75897C19.2957 5.78714 19.3331 5.80612 19.3731 5.81364C19.4131 5.82116 19.4541 5.81688 19.4911 5.80134C19.9462 5.6102 20.408 5.5419 20.8763 5.59641C21.2395 5.6391 21.5446 5.71759 21.7916 5.83188C21.9939 5.92515 22.1715 6.05486 22.3246 6.22104C22.4546 6.36291 22.5666 6.54682 22.6605 6.77276C22.9896 7.56553 22.9239 8.26175 22.4635 8.86142C22.118 9.31133 21.6743 9.59836 21.1324 9.7225C20.5978 9.84401 20.0379 9.78227 19.4527 9.53728C19.4259 9.52615 19.3968 9.52212 19.3682 9.52558C19.3395 9.52903 19.3123 9.53985 19.2891 9.55698C18.9581 9.80197 18.6779 10.0328 18.4487 10.2496C17.8582 10.8085 17.2803 11.3488 16.7147 11.8703C16.686 11.897 16.6674 11.9328 16.6618 11.9715C16.6562 12.0102 16.6641 12.0496 16.6842 12.0831C16.9095 12.466 17.0103 12.8601 16.9867 13.2653C16.965 13.6299 16.8399 13.9698 16.6113 14.285C16.4615 14.4919 16.2812 14.6699 16.0704 14.819C15.8773 14.9556 15.6517 15.0607 15.3936 15.1343C14.3446 15.4331 13.4875 15.1179 12.8221 14.1885C12.4662 13.6906 12.3847 13.1382 12.5778 12.5313C12.7072 12.1254 12.9299 11.7977 13.2458 11.5481C14.055 10.9084 14.9269 10.8236 15.8615 11.2939C15.8871 11.3068 15.9161 11.3115 15.9443 11.3073C15.9726 11.303 15.9987 11.2901 16.0192 11.2703C16.6228 10.6877 17.2543 10.1195 17.9137 9.56585C18.1896 9.33399 18.4487 9.10115 18.6911 8.86733C18.7058 8.85347 18.7155 8.83513 18.7187 8.81517C18.7219 8.79522 18.7184 8.77476 18.7088 8.75699C18.2753 7.96421 18.2753 7.20921 18.7088 6.49197C18.7223 6.46983 18.7273 6.44354 18.723 6.41788C18.7186 6.39221 18.7052 6.36886 18.6852 6.35207C17.7899 5.59805 16.9124 4.80627 16.0527 3.97672C16.0325 3.95732 16.0068 3.94464 15.9791 3.94041C15.9514 3.93618 15.9231 3.9406 15.898 3.95307C15.1282 4.33533 14.406 4.35799 13.7315 4.02105C13.3926 3.85225 13.1161 3.62434 12.902 3.33731C12.6694 3.02533 12.5404 2.67722 12.5148 2.29298C12.4813 1.79249 12.6156 1.33864 12.9177 0.931412C13.1253 0.652268 13.3886 0.432893 13.7079 0.273288C14.0008 0.127476 14.3246 0.0466883 14.6793 0.0309248C15.367 0.00136835 15.9358 0.22337 16.3857 0.69693C16.7193 1.04767 16.9187 1.43781 16.9837 1.86737C17.054 2.32911 16.9571 2.78493 16.6931 3.23485C16.6797 3.25737 16.6747 3.28395 16.6789 3.31013C16.683 3.33631 16.696 3.36051 16.7157 3.37869Z" fill="white"/>
<path d="M5.35224 11.6337C5.29247 11.6974 5.22351 11.7585 5.14535 11.8169C5.03172 11.9023 5.01136 12.0058 5.08426 12.1273C5.44485 12.7289 5.44518 13.4045 5.08525 14.1539C5.06654 14.1933 5.06028 14.2373 5.06734 14.2797C5.07441 14.3221 5.09444 14.3607 5.12466 14.3903L7.6409 16.8573C7.65092 16.8671 7.6639 16.8733 7.67803 16.8753C7.69216 16.8772 7.70673 16.8747 7.71972 16.8682C8.3496 16.5437 9.00017 16.4774 9.67143 16.6691C9.90525 16.7361 10.1121 16.8498 10.2921 17.01C10.4346 17.1374 10.5854 17.3135 10.7443 17.5381C11.279 18.2954 11.2599 19.0832 10.6872 19.9016C10.2281 20.5584 9.57783 20.8474 8.73646 20.7686C7.74402 20.676 7.08327 20.2054 6.7542 19.3568C6.63204 19.0422 6.5831 18.7512 6.60741 18.4839C6.63434 18.1903 6.73548 17.9016 6.91085 17.6179C6.9304 17.5864 6.93852 17.5493 6.93385 17.5126C6.92919 17.476 6.91201 17.4422 6.88524 17.4169C6.62317 17.166 6.37654 16.9184 6.14534 16.6741C5.56406 16.0632 4.96374 15.4875 4.34436 14.947C4.32784 14.9328 4.30741 14.924 4.28577 14.9217C4.26413 14.9194 4.2423 14.9238 4.22318 14.9342C3.64388 15.2527 3.03797 15.3302 2.40546 15.1667C2.00283 15.0623 1.68986 14.8826 1.46655 14.6278C0.657357 13.7036 0.618277 12.7434 1.34931 11.747C1.50431 11.5355 1.69315 11.3723 1.91581 11.2573C2.11416 11.1562 2.34536 11.0803 2.6094 11.0298C2.96211 10.9628 3.31711 10.9867 3.67442 11.1017C3.87475 11.1667 4.07639 11.2281 4.27934 11.2859C4.29406 11.2901 4.30951 11.2905 4.32418 11.287C4.33886 11.2836 4.35226 11.2764 4.36308 11.2662L6.93844 8.87017C6.95324 8.85654 6.96317 8.8384 6.96672 8.81849C6.97028 8.79858 6.96726 8.77799 6.95814 8.75982C6.52202 7.89283 6.5345 7.12042 6.99558 6.44259C7.19065 6.15557 7.46028 5.93521 7.80444 5.78151C8.54992 5.44983 9.30953 5.45541 10.0832 5.79826C10.2251 5.86066 10.3496 5.94802 10.4566 6.06033C11.0924 6.72699 11.2803 7.48627 11.0202 8.33815C10.9368 8.61073 10.7768 8.87509 10.5404 9.13125C10.3256 9.36507 10.0764 9.5342 9.79261 9.63864C9.13711 9.881 8.46585 9.83732 7.77883 9.5076C7.7532 9.49538 7.72481 9.49029 7.6967 9.4929C7.66858 9.4955 7.6418 9.50569 7.61922 9.52238C6.95387 10.015 6.37161 10.5398 5.87244 11.0968C5.74239 11.2419 5.63336 11.3552 5.54534 11.4367C5.49477 11.4839 5.4304 11.5496 5.35224 11.6337Z" fill="white"/>
<path d="M11.1946 14.6526C11.9605 15.3731 12.7027 16.0848 13.4212 16.7876C13.4515 16.8169 13.4901 16.8362 13.5317 16.8427C13.5733 16.8493 13.616 16.8427 13.6537 16.824C14.4012 16.4529 15.1378 16.4575 15.8636 16.8378C15.8878 16.8505 15.9154 16.8553 15.9425 16.8516C15.9697 16.8479 15.9951 16.8359 16.0153 16.8171L18.7177 14.3314C18.7277 14.3223 18.734 14.3099 18.7357 14.2963C18.7373 14.2828 18.7341 14.2691 18.7266 14.2575C18.2419 13.5213 18.2386 12.7837 18.7168 12.0447C19.0675 11.5035 19.5296 11.1751 20.103 11.0595C20.6422 10.9512 21.1634 11.0218 21.6665 11.2713C22.2327 11.5525 22.6185 12.03 22.8241 12.7039C22.9627 13.1571 22.9118 13.5984 22.6714 14.028C22.3765 14.5561 21.9424 14.917 21.369 15.1107C20.7141 15.3327 20.0701 15.2825 19.437 14.96C19.4159 14.9493 19.392 14.9455 19.3685 14.949C19.345 14.9525 19.3232 14.9633 19.3059 14.9797L16.7247 17.4329C16.696 17.4601 16.679 17.4974 16.6774 17.5368C16.6757 17.5762 16.6895 17.6145 16.7158 17.6437C16.8747 17.8204 16.9703 18.0368 17.0025 18.293C17.0419 18.601 17.0215 18.8982 16.9414 19.1846C16.8665 19.4546 16.7289 19.7101 16.5286 19.9511C16.0977 20.4706 15.5549 20.7455 14.9 20.7757C14.3424 20.8013 13.8541 20.6667 13.435 20.3718C12.9864 20.0572 12.6928 19.5994 12.5542 18.9984C12.4334 18.4743 12.5175 18.0158 12.8064 17.623C12.8274 17.5946 12.8372 17.5594 12.8339 17.5239C12.8306 17.4884 12.8146 17.455 12.7887 17.4299L10.2242 14.9561C10.2135 14.946 10.2002 14.9393 10.1861 14.937C10.172 14.9347 10.1578 14.9369 10.1454 14.9432C9.7907 15.1219 9.47675 15.2211 9.20351 15.2408C8.34178 15.3032 7.6669 15.0516 7.17889 14.4861C6.84852 14.1038 6.66592 13.6851 6.63111 13.23C6.6055 12.8864 6.67348 12.5577 6.83505 12.2438C6.97824 11.9646 7.18677 11.716 7.46066 11.4979C8.08398 11.0014 8.82125 10.8687 9.67248 11.0999C9.92338 11.1682 10.1388 11.2855 10.3188 11.4516C10.4764 11.5981 10.6285 11.783 10.7749 12.0063C10.9181 12.2231 11.0245 12.474 11.0941 12.759C11.2216 13.2832 11.1286 13.7574 10.8153 14.1817C10.7953 14.2086 10.7868 14.2424 10.7916 14.2756C10.7964 14.3089 10.8141 14.3388 10.8409 14.359C10.971 14.4549 11.0889 14.5528 11.1946 14.6526Z" fill="white"/>
</svg>
