<svg width="243" height="243" viewBox="0 0 243 243" fill="none" xmlns="http://www.w3.org/2000/svg">
<circle cx="121.5" cy="121.5" r="121.5" fill="#13196C"/>
<path d="M93.3822 80H93.2336C92.9017 80 92.6326 80.2691 92.6326 80.6011V163.195C92.6326 163.527 92.9017 163.796 93.2336 163.796H93.3822C93.7141 163.796 93.9832 163.527 93.9832 163.195V80.6011C93.9832 80.2691 93.7141 80 93.3822 80Z" fill="white"/>
<path d="M49.5629 103.471C51.0464 104.917 52.5479 106.337 54.0674 107.733C54.3556 107.996 54.6809 108.055 55.0433 107.908C57.3012 106.99 59.5816 106.919 61.8845 107.696C62.767 107.995 63.5211 108.417 64.1469 108.962C64.7074 109.448 65.1903 110.134 65.5955 111.018C67.2231 114.584 66.4082 117.656 63.1508 120.233C62.2323 120.958 61.0009 121.393 59.4567 121.537C57.685 121.701 56.1047 121.382 54.7158 120.578C53.3718 119.801 52.3352 118.676 51.6058 117.201C50.514 115 50.6412 112.714 51.9874 110.343C52.0579 110.22 52.0817 110.076 52.0545 109.936C52.0272 109.797 51.9507 109.672 51.8388 109.583C48.6377 107.069 45.7292 104.392 43.1134 101.554C43.0801 101.518 43.0359 101.495 42.9881 101.487C42.9402 101.48 42.8916 101.489 42.85 101.513C40.1554 103.035 37.4237 103.055 34.6548 101.574C34.5705 101.528 34.4737 101.511 34.3779 101.525C34.2822 101.538 34.1924 101.581 34.1213 101.648L25.4837 109.783C25.4175 109.845 25.3732 109.926 25.3574 110.015C25.3416 110.104 25.3551 110.195 25.3959 110.276C25.8281 111.135 26.1399 111.971 26.3312 112.781C26.5316 113.639 26.5518 114.516 26.392 115.412C25.989 117.676 24.7633 119.396 22.7148 120.571C21.7445 121.127 20.6887 121.45 19.5474 121.54C18.4196 121.63 17.339 121.564 16.3058 121.341C14.4508 120.943 13.0551 119.87 12.1187 118.123C10.4033 114.922 10.6993 111.883 13.0067 109.006C13.3129 108.621 13.6461 108.332 14.0062 108.138C14.1008 108.089 14.5004 107.929 15.205 107.659C17.1972 106.902 19.2187 106.848 21.2695 107.497C21.2853 107.501 21.5093 107.597 21.9415 107.784C22.5763 108.056 23.1695 107.953 23.721 107.476C25.738 105.727 27.6583 103.877 29.4817 101.925C30.2403 101.11 31.0698 100.275 31.9703 99.4194C32.0275 99.3639 32.0639 99.2905 32.0731 99.2116C32.0824 99.1328 32.0639 99.0535 32.021 98.9872C31.0079 97.4047 30.668 95.7703 31.0012 94.0842C31.3006 92.5692 32.0581 91.2523 33.2737 90.1335C34.4713 89.0327 35.9177 88.3585 37.6128 88.1109C39.5262 87.834 41.3699 88.2279 43.1438 89.2927C43.4432 89.4728 43.8968 89.923 44.5046 90.6434C46.686 93.2277 46.9133 96.0394 45.1867 99.0784C45.1484 99.1451 45.1346 99.223 45.1475 99.2988C45.1605 99.3746 45.1994 99.4435 45.2576 99.4937C46.6871 100.741 48.1222 102.067 49.5629 103.471Z" fill="white"/>
<path d="M65.4502 99.605L74.1891 107.763C74.2928 107.86 74.4209 107.925 74.5581 107.951C74.6952 107.976 74.8357 107.962 74.9624 107.908C76.5224 107.253 78.105 107.019 79.71 107.206C80.9549 107.352 82.0006 107.621 82.847 108.013C83.5403 108.333 84.1493 108.777 84.6738 109.347C85.1195 109.833 85.5033 110.463 85.8252 111.238C86.9531 113.955 86.728 116.341 85.1499 118.396C83.9658 119.938 82.4452 120.922 80.588 121.348C78.7556 121.764 76.8365 121.552 74.8307 120.713C74.7391 120.675 74.6393 120.661 74.5411 120.673C74.4429 120.685 74.3495 120.722 74.2702 120.78C73.1356 121.62 72.1755 122.411 71.3898 123.154C69.3661 125.07 67.3851 126.921 65.4468 128.709C65.3485 128.801 65.2844 128.923 65.2654 129.056C65.2463 129.188 65.2734 129.323 65.3422 129.438C66.1143 130.751 66.4599 132.101 66.3788 133.49C66.3045 134.74 65.8757 135.905 65.0923 136.985C64.579 137.694 63.9611 138.304 63.2385 138.815C62.5766 139.284 61.8034 139.644 60.9187 139.896C57.3236 140.92 54.3859 139.84 52.1055 136.654C50.8854 134.948 50.6062 133.055 51.2681 130.975C51.7115 129.583 52.4747 128.46 53.5575 127.605C56.3309 125.412 59.3193 125.122 62.5226 126.733C62.6103 126.778 62.7095 126.794 62.8063 126.779C62.9032 126.765 62.9928 126.72 63.0629 126.652C65.1317 124.656 67.2962 122.708 69.5563 120.811C70.5018 120.016 71.3898 119.218 72.2205 118.417C72.2709 118.369 72.3042 118.306 72.3152 118.238C72.3262 118.169 72.3143 118.099 72.2813 118.038C70.7955 115.321 70.7955 112.734 72.2813 110.275C72.3274 110.2 72.3446 110.109 72.3297 110.021C72.3149 109.933 72.2689 109.853 72.2003 109.796C69.132 107.212 66.1244 104.498 63.1777 101.655C63.1084 101.588 63.0203 101.545 62.9255 101.53C62.8306 101.516 62.7335 101.531 62.6476 101.574C60.0092 102.884 57.5341 102.961 55.2222 101.807C54.0606 101.228 53.1129 100.447 52.379 99.4632C51.5821 98.3939 51.1398 97.2008 51.052 95.8839C50.9372 94.1685 51.3975 92.613 52.433 91.2173C53.1444 90.2606 54.0471 89.5087 55.1411 88.9617C56.1452 88.4619 57.255 88.185 58.4706 88.131C60.8275 88.0297 62.777 88.7906 64.319 90.4136C65.4626 91.6158 66.1458 92.9529 66.3687 94.4252C66.6096 96.0077 66.2775 97.57 65.3726 99.112C65.3269 99.1892 65.3097 99.2803 65.3238 99.37C65.338 99.4598 65.3826 99.5427 65.4502 99.605Z" fill="white"/>
<path d="M219.151 123.323C221.735 120.872 224.217 118.223 226.597 115.378C226.892 115.027 227.268 114.851 227.724 114.851H232.003C232.469 114.851 232.548 115.024 232.239 115.371C230.909 116.866 229.638 118.369 228.427 119.882C227.468 121.082 226.448 122.222 225.368 123.303C225.321 123.35 225.291 123.411 225.285 123.477C225.278 123.543 225.294 123.609 225.33 123.664L232.904 135.111C233.053 135.336 232.993 135.449 232.725 135.449C231.49 135.449 230.313 135.449 229.197 135.449C229.183 135.449 228.975 135.462 228.572 135.489C227.881 135.537 227.344 135.263 226.961 134.669C225.273 132.037 223.526 129.445 221.721 126.892C221.694 126.855 221.655 126.83 221.611 126.821C221.566 126.813 221.521 126.823 221.484 126.848C220.507 127.521 219.69 128.351 219.033 129.337C218.976 129.423 218.946 129.53 218.948 129.644L219.002 134.942C219.003 135.009 218.991 135.074 218.967 135.136C218.943 135.197 218.906 135.252 218.861 135.299C218.815 135.346 218.761 135.382 218.701 135.407C218.641 135.432 218.577 135.443 218.513 135.442L213.542 135.354C213.497 135.354 213.453 135.335 213.421 135.301C213.388 135.267 213.37 135.22 213.37 135.172L213.33 107.372C213.329 107.28 213.365 107.192 213.43 107.126C213.495 107.06 213.584 107.022 213.677 107.02L218.472 106.943C218.539 106.941 218.605 106.953 218.667 106.977C218.729 107.001 218.786 107.037 218.834 107.083C218.881 107.129 218.919 107.184 218.945 107.244C218.971 107.305 218.985 107.37 218.986 107.436L219.026 123.269C219.026 123.384 219.068 123.402 219.151 123.323Z" fill="white"/>
<path d="M26.5033 127.899C26.2985 128.117 26.0621 128.326 25.7942 128.527C25.4048 128.819 25.335 129.174 25.5849 129.59C26.8207 131.652 26.8219 133.968 25.5882 136.536C25.5241 136.671 25.5027 136.822 25.5269 136.967C25.5511 137.113 25.6198 137.245 25.7233 137.347L34.3474 145.802C34.3817 145.835 34.4262 145.857 34.4747 145.863C34.5231 145.87 34.573 145.862 34.6175 145.839C36.7764 144.727 39.0061 144.5 41.3068 145.157C42.1082 145.387 42.8173 145.776 43.4341 146.325C43.9226 146.762 44.4392 147.365 44.984 148.135C46.8164 150.731 46.7512 153.431 44.7882 156.236C43.2146 158.487 40.986 159.477 38.1023 159.207C34.7008 158.89 32.4362 157.277 31.3084 154.369C30.8897 153.29 30.7219 152.293 30.8052 151.377C30.8975 150.371 31.2442 149.381 31.8453 148.409C31.9122 148.301 31.9401 148.173 31.9241 148.048C31.9081 147.922 31.8492 147.806 31.7575 147.72C30.8593 146.86 30.014 146.011 29.2216 145.174C27.2293 143.08 25.1718 141.107 23.049 139.254C22.9923 139.206 22.9223 139.176 22.8481 139.168C22.7739 139.16 22.6991 139.175 22.6336 139.211C20.6481 140.302 18.5714 140.568 16.4036 140.007C15.0237 139.649 13.951 139.034 13.1856 138.16C10.4122 134.993 10.2783 131.702 12.7838 128.287C13.315 127.562 13.9622 127.003 14.7254 126.609C15.4052 126.262 16.1976 126.002 17.1026 125.829C18.3114 125.599 19.5282 125.681 20.7528 126.075C21.4394 126.298 22.1305 126.508 22.8261 126.707C22.8765 126.721 22.9295 126.722 22.9798 126.71C23.0301 126.699 23.076 126.674 23.1131 126.639L31.9398 118.427C31.9905 118.38 32.0246 118.318 32.0367 118.25C32.0489 118.182 32.0386 118.111 32.0073 118.049C30.5126 115.077 30.5554 112.43 32.1357 110.107C32.8042 109.123 33.7283 108.368 34.9079 107.841C37.463 106.704 40.0664 106.723 42.7182 107.898C43.2045 108.112 43.6311 108.412 43.998 108.797C46.1771 111.081 46.8209 113.684 45.9295 116.603C45.6436 117.538 45.0954 118.444 44.285 119.322C43.5489 120.123 42.6946 120.703 41.7221 121.061C39.4755 121.891 37.1748 121.742 34.8201 120.612C34.7323 120.57 34.635 120.552 34.5386 120.561C34.4423 120.57 34.3505 120.605 34.2731 120.662C31.9927 122.351 29.9971 124.149 28.2862 126.058C27.8405 126.556 27.4668 126.944 27.1652 127.223C26.9918 127.385 26.7712 127.61 26.5033 127.899Z" fill="white"/>
<path d="M109.668 129.84C111.242 130.583 112.918 130.761 114.696 130.374C115.475 130.202 116.26 129.9 117.05 129.465C117.793 129.058 118.493 128.582 119.15 128.037C119.841 127.467 120.171 126.571 120.139 125.349C120.138 125.273 120.106 125.201 120.052 125.148C119.998 125.095 119.925 125.065 119.849 125.065H114.97C114.908 125.065 114.846 125.053 114.789 125.029C114.731 125.006 114.679 124.971 114.635 124.927C114.591 124.883 114.557 124.831 114.533 124.774C114.509 124.716 114.497 124.655 114.497 124.593V121.597C114.497 121.487 114.54 121.381 114.616 121.303C114.693 121.224 114.797 121.18 114.906 121.179L124.114 121.101C124.182 121.101 124.249 121.114 124.313 121.139C124.376 121.165 124.433 121.203 124.481 121.25C124.53 121.298 124.568 121.355 124.594 121.417C124.62 121.48 124.634 121.547 124.634 121.614L124.644 135C124.644 135.119 124.595 135.233 124.508 135.317C124.422 135.401 124.304 135.449 124.181 135.449H120.69C120.289 135.449 120.093 135.225 120.102 134.777L120.143 132.997C120.152 132.648 120.022 132.599 119.754 132.849C118.244 134.274 116.463 135.14 114.413 135.449C112.967 135.667 111.258 135.604 109.283 135.26C108.045 135.044 106.9 134.551 105.849 133.781C105.048 133.193 104.155 132.351 103.171 131.255C101.091 128.934 99.8747 126.251 99.5212 123.205C99.2489 120.861 99.5077 118.649 100.298 116.566C101.192 114.207 102.695 112.094 104.809 110.228C105.928 109.242 107.099 108.561 108.321 108.185C109.185 107.917 110.497 107.745 112.255 107.669C113.831 107.601 115.403 107.701 116.972 107.969C118.307 108.196 119.463 108.737 120.44 109.59C120.836 109.939 121.36 110.48 122.01 111.214C122.508 111.775 122.963 112.376 123.378 113.017C123.607 113.375 123.542 113.699 123.182 113.99L120.065 116.502C120.028 116.531 119.986 116.553 119.941 116.566C119.896 116.579 119.85 116.582 119.804 116.576C119.759 116.57 119.716 116.555 119.679 116.531C119.641 116.507 119.609 116.475 119.586 116.438C118.224 114.266 116.416 112.987 114.163 112.602C112.083 112.246 110.195 112.633 108.5 113.764C106.735 114.941 105.639 116.738 105.211 119.156C105.022 120.221 104.994 121.6 105.127 123.293C105.239 124.736 105.719 126.049 106.565 127.233C107.384 128.379 108.419 129.248 109.668 129.84Z" fill="white"/>
<path d="M183.152 112.764L183.213 134.939C183.213 135.006 183.2 135.073 183.174 135.135C183.149 135.197 183.112 135.253 183.066 135.301C183.019 135.348 182.964 135.385 182.903 135.41C182.843 135.435 182.778 135.447 182.713 135.445L178.019 135.358C177.944 135.356 177.873 135.323 177.821 135.266C177.768 135.209 177.739 135.133 177.739 135.054L177.749 112.805C177.749 112.759 177.731 112.714 177.699 112.682C177.667 112.649 177.623 112.63 177.577 112.629L169.436 112.575C168.997 112.573 168.777 112.357 168.777 111.927V108.094C168.777 108.05 168.786 108.007 168.803 107.966C168.82 107.926 168.844 107.889 168.875 107.858C168.906 107.827 168.943 107.802 168.984 107.785C169.024 107.768 169.068 107.76 169.112 107.76H191.813C191.861 107.76 191.908 107.769 191.953 107.788C191.997 107.807 192.037 107.835 192.07 107.87C192.103 107.905 192.129 107.946 192.147 107.992C192.164 108.037 192.173 108.086 192.171 108.135L192.056 112.214C192.054 112.31 192.014 112.401 191.946 112.469C191.878 112.536 191.787 112.574 191.692 112.575L183.314 112.592C183.271 112.592 183.23 112.61 183.199 112.642C183.169 112.675 183.152 112.718 183.152 112.764Z" fill="white"/>
<path d="M133.163 127.314C133.478 128.814 134.208 129.982 135.351 130.819C136.166 131.414 137.081 131.713 138.097 131.718C139.105 131.722 140.081 131.482 141.024 130.998C141.729 130.636 142.284 130.104 142.689 129.401C142.769 129.264 142.891 129.158 143.038 129.098C143.184 129.039 143.345 129.03 143.496 129.074L147.305 130.158C147.36 130.173 147.411 130.201 147.453 130.24C147.496 130.278 147.529 130.326 147.55 130.379C147.571 130.433 147.58 130.491 147.576 130.548C147.571 130.606 147.554 130.662 147.524 130.711C146.633 132.222 145.484 133.414 144.077 134.287C143.102 134.891 141.956 135.285 140.639 135.469C139.484 135.629 138.255 135.679 136.952 135.618C134.858 135.519 133.054 134.87 131.539 133.673C128.784 131.496 127.353 128.816 127.247 125.633C127.169 123.298 127.772 121.172 129.057 119.254C130.239 117.489 131.829 116.202 133.828 115.391C135.677 114.642 137.627 114.4 139.68 114.665C142.983 115.093 145.531 116.757 147.325 119.656C147.987 120.723 148.432 121.801 148.659 122.891C148.9 124.046 148.944 125.23 148.791 126.443C148.775 126.57 148.714 126.687 148.619 126.771C148.524 126.856 148.401 126.902 148.274 126.902L133.484 126.923C133.435 126.923 133.387 126.934 133.343 126.954C133.299 126.975 133.26 127.006 133.23 127.043C133.199 127.081 133.177 127.124 133.165 127.171C133.154 127.218 133.153 127.267 133.163 127.314ZM133.758 121.159C133.433 121.622 133.225 122.087 133.133 122.553C133.118 122.625 133.12 122.699 133.139 122.77C133.157 122.841 133.192 122.907 133.24 122.963C133.287 123.02 133.347 123.065 133.415 123.097C133.483 123.128 133.558 123.144 133.633 123.144L142.78 123.1C142.828 123.1 142.876 123.089 142.919 123.068C142.962 123.046 142.999 123.015 143.027 122.976C143.055 122.938 143.073 122.894 143.08 122.847C143.087 122.8 143.083 122.753 143.067 122.709C142.36 120.728 141.151 119.462 139.441 118.913C138.592 118.639 137.769 118.583 136.972 118.748C136.103 118.928 135.351 119.343 134.717 119.994C134.372 120.345 134.052 120.733 133.758 121.159Z" fill="white"/>
<path d="M153.444 117.583C154.999 116.063 156.858 115.13 159.019 114.783C164.264 113.942 168.142 115.758 170.655 120.233C171.312 121.402 171.685 122.704 171.772 124.14C172.018 128.219 170.506 131.532 167.238 134.078C166.432 134.704 165.596 135.128 164.732 135.351C164.225 135.482 163.316 135.579 162.004 135.645C160.401 135.726 158.966 135.611 157.698 135.3C156.195 134.931 154.864 134.209 153.707 133.132C152.649 132.144 151.863 130.912 151.35 129.435C150.612 127.305 150.455 125.033 150.881 122.617C151.239 120.582 152.093 118.904 153.444 117.583ZM161.102 131.135C162.505 131.169 163.866 130.578 164.885 129.49C165.904 128.403 166.499 126.909 166.537 125.337C166.556 124.558 166.438 123.784 166.19 123.058C165.941 122.333 165.568 121.67 165.09 121.107C164.612 120.545 164.04 120.094 163.405 119.78C162.771 119.467 162.087 119.297 161.392 119.28C159.989 119.245 158.628 119.837 157.609 120.924C156.59 122.012 155.996 123.506 155.958 125.078C155.939 125.856 156.056 126.631 156.305 127.356C156.553 128.082 156.927 128.745 157.404 129.307C157.882 129.87 158.455 130.321 159.089 130.634C159.724 130.948 160.408 131.118 161.102 131.135Z" fill="white"/>
<path d="M204.77 129.161C204.812 129.103 204.871 129.059 204.939 129.035C205.007 129.012 205.08 129.01 205.148 129.03L209.156 130.174C209.203 130.188 209.245 130.213 209.281 130.245C209.317 130.278 209.345 130.319 209.363 130.364C209.381 130.409 209.388 130.458 209.385 130.506C209.381 130.555 209.366 130.602 209.342 130.644C207.723 133.395 205.401 135.024 202.375 135.533C201.189 135.734 199.832 135.75 198.303 135.584C196.808 135.422 195.522 135.046 194.444 134.456C191.772 132.993 190.054 130.679 189.291 127.514C188.964 126.163 188.914 124.813 189.139 123.465C189.346 122.231 189.824 121.001 190.574 119.774C192.442 116.715 195.113 115.004 198.587 114.642C200.973 114.392 203.151 114.783 205.121 115.817C207.462 117.046 209.142 118.996 210.162 121.669C210.565 122.724 210.735 123.923 210.672 125.265C210.672 125.28 210.679 125.542 210.692 126.048C210.71 126.703 210.382 127.009 209.706 126.967C209.29 126.94 209.075 126.926 209.061 126.926C204.422 126.953 199.826 126.932 195.274 126.862C195.225 126.861 195.176 126.871 195.131 126.891C195.086 126.912 195.047 126.942 195.015 126.98C194.984 127.018 194.961 127.063 194.949 127.111C194.937 127.159 194.937 127.209 194.947 127.257C195.298 128.961 196.205 130.278 197.668 131.208C198.328 131.624 199.082 131.81 199.931 131.765C200.687 131.724 201.422 131.565 202.136 131.285C203.158 130.885 204.036 130.177 204.77 129.161ZM195.973 120.531C195.422 121.188 195.051 121.941 194.862 122.79C194.853 122.83 194.853 122.872 194.863 122.912C194.872 122.952 194.891 122.99 194.917 123.022C194.944 123.054 194.977 123.08 195.015 123.098C195.053 123.115 195.094 123.124 195.136 123.124L204.58 123.043C204.628 123.042 204.675 123.031 204.717 123.009C204.759 122.988 204.795 122.956 204.823 122.918C204.851 122.88 204.869 122.836 204.876 122.789C204.883 122.743 204.879 122.696 204.864 122.651C203.934 119.905 202.074 118.596 199.282 118.724C198.596 118.756 197.988 118.931 197.459 119.251C196.898 119.591 196.403 120.017 195.973 120.531Z" fill="white"/>
<path d="M46.5271 138.245C49.1519 140.714 51.6957 143.153 54.1584 145.562C54.2621 145.663 54.3943 145.729 54.537 145.751C54.6797 145.773 54.8259 145.751 54.9553 145.687C57.5171 144.415 60.0418 144.431 62.5293 145.734C62.6122 145.778 62.7068 145.794 62.7999 145.782C62.8931 145.769 62.9802 145.728 63.0493 145.663L72.3116 137.144C72.3457 137.113 72.3675 137.07 72.373 137.024C72.3786 136.977 72.3676 136.93 72.342 136.891C70.6806 134.367 70.6694 131.839 72.3082 129.307C73.5103 127.452 75.094 126.326 77.0592 125.93C78.9074 125.558 80.6937 125.8 82.418 126.656C84.3585 127.619 85.6811 129.256 86.3857 131.566C86.8607 133.119 86.6862 134.632 85.8623 136.104C84.8515 137.914 83.3635 139.151 81.3983 139.815C79.1539 140.576 76.9467 140.404 74.7766 139.298C74.7043 139.262 74.6223 139.248 74.5419 139.261C74.4615 139.273 74.3866 139.309 74.3275 139.366L65.4805 147.774C65.3822 147.867 65.3241 147.995 65.3184 148.13C65.3127 148.265 65.36 148.396 65.4501 148.496C65.9949 149.102 66.3224 149.844 66.4327 150.722C66.5678 151.777 66.498 152.796 66.2234 153.778C65.9667 154.703 65.4951 155.578 64.8085 156.405C63.3318 158.185 61.4712 159.127 59.2269 159.231C57.3156 159.319 55.6419 158.857 54.2057 157.846C52.6682 156.768 51.6619 155.199 51.1869 153.139C50.7727 151.343 51.0609 149.772 52.0514 148.425C52.1232 148.328 52.1566 148.207 52.1454 148.086C52.1343 147.964 52.0792 147.849 51.9906 147.764L43.201 139.285C43.1645 139.25 43.1189 139.227 43.0705 139.219C43.0221 139.211 42.9733 139.219 42.9309 139.241C41.7153 139.853 40.6392 140.193 39.7028 140.261C36.7493 140.474 34.4362 139.612 32.7636 137.674C31.6313 136.364 31.0055 134.929 30.8862 133.369C30.7984 132.191 31.0314 131.065 31.5852 129.989C32.0759 129.032 32.7906 128.18 33.7294 127.432C35.8657 125.731 38.3926 125.276 41.3101 126.068C42.17 126.302 42.9084 126.704 43.5252 127.274C44.0655 127.776 44.5866 128.409 45.0886 129.175C45.5793 129.918 45.944 130.778 46.1826 131.755C46.6194 133.551 46.3008 135.176 45.227 136.631C45.1584 136.723 45.1292 136.839 45.1456 136.953C45.1621 137.066 45.2229 137.169 45.3148 137.238C45.7606 137.567 46.1646 137.902 46.5271 138.245Z" fill="white"/>
</svg>
