<svg width="195" height="74" viewBox="0 0 195 74" fill="none" xmlns="http://www.w3.org/2000/svg">
<path d="M72.3681 0H72.2376C71.946 0 71.7096 0.236389 71.7096 0.52799V73.0822C71.7096 73.3738 71.946 73.6102 72.2376 73.6102H72.3681C72.6597 73.6102 72.8961 73.3738 72.8961 73.0822V0.52799C72.8961 0.236389 72.6597 0 72.3681 0Z" fill="#0B1B72"/>
<path d="M33.8752 20.6185C35.1784 21.8881 36.4974 23.1359 37.8322 24.3619C38.0853 24.5933 38.3711 24.6447 38.6894 24.5162C40.6729 23.7093 42.6761 23.6471 44.699 24.3293C45.4742 24.5923 46.1367 24.9631 46.6864 25.4416C47.1788 25.8688 47.603 26.4709 47.9589 27.2481C49.3887 30.3804 48.6728 33.0787 45.8114 35.3429C45.0046 35.9797 43.9229 36.3613 42.5663 36.4879C41.01 36.6323 39.6218 36.3515 38.4017 35.6455C37.2212 34.9633 36.3105 33.9745 35.6698 32.6793C34.7107 30.7453 34.8225 28.7371 36.005 26.6548C36.067 26.5469 36.0879 26.4201 36.0639 26.2976C36.04 26.1751 35.9727 26.065 35.8745 25.9874C33.0625 23.7786 30.5076 21.4273 28.2097 18.9337C28.1804 18.9025 28.1416 18.882 28.0996 18.8755C28.0576 18.8691 28.0149 18.877 27.9784 18.8981C25.6113 20.2349 23.2116 20.2527 20.7793 18.9515C20.7053 18.9117 20.6202 18.8966 20.5361 18.9083C20.452 18.92 20.3731 18.958 20.3106 19.0168L12.723 26.1624C12.6649 26.2169 12.626 26.2886 12.6121 26.3667C12.5982 26.4448 12.61 26.5251 12.6459 26.5955C13.0255 27.3509 13.2994 28.0845 13.4675 28.7964C13.6435 29.5499 13.6613 30.3201 13.5209 31.1071C13.1669 33.0965 12.0902 34.6073 10.2907 35.6396C9.43837 36.128 8.51092 36.4118 7.50834 36.4909C6.51761 36.57 5.56841 36.5116 4.66075 36.3159C3.03129 35.9658 1.80525 35.0236 0.982609 33.489C-0.52424 30.677 -0.2642 28.0074 1.76273 25.4802C2.03167 25.142 2.32434 24.8879 2.64074 24.7179C2.72379 24.6744 3.0748 24.534 3.69375 24.2967C5.44383 23.6322 7.21962 23.5848 9.02112 24.1543C9.03496 24.1582 9.23172 24.2423 9.6114 24.4064C10.1691 24.6457 10.6901 24.5557 11.1746 24.1365C12.9464 22.6 14.6332 20.9745 16.235 19.26C16.9014 18.5441 17.6301 17.8105 18.4211 17.059C18.4714 17.0103 18.5033 16.9457 18.5114 16.8765C18.5196 16.8073 18.5034 16.7376 18.4656 16.6794C17.5758 15.2892 17.2772 13.8535 17.5698 12.3724C17.8328 11.0415 18.4983 9.88469 19.5661 8.90188C20.6181 7.93489 21.8887 7.34262 23.3777 7.1251C25.0586 6.88187 26.6782 7.22793 28.2364 8.16328C28.4994 8.32148 28.8979 8.71698 29.4318 9.34978C31.348 11.6199 31.5477 14.0898 30.031 16.7594C29.9974 16.818 29.9852 16.8865 29.9966 16.9531C30.0079 17.0196 30.0421 17.0802 30.0933 17.1243C31.349 18.2198 32.6096 19.3846 33.8752 20.6185Z" fill="#07186C"/>
<path d="M47.8314 17.2219L55.508 24.3883C55.5991 24.4731 55.7116 24.5303 55.8321 24.5529C55.9526 24.5755 56.076 24.5627 56.1873 24.5159C57.5577 23.9404 58.9479 23.7348 60.3578 23.8989C61.4514 24.0274 62.3699 24.2637 63.1135 24.6078C63.7226 24.8886 64.2575 25.2792 64.7182 25.7795C65.1098 26.2066 65.4469 26.7603 65.7297 27.4406C66.7204 29.8274 66.5227 31.9236 65.1365 33.729C64.0963 35.0836 62.7605 35.9478 61.1291 36.3215C59.5194 36.6873 57.8336 36.5015 56.0716 35.7639C55.9912 35.7304 55.9035 35.7182 55.8172 35.7286C55.7309 35.739 55.6489 35.7716 55.5792 35.8232C54.5826 36.5608 53.7392 37.2559 53.049 37.9084C51.2713 39.5913 49.5311 41.2178 47.8285 42.7879C47.7421 42.8685 47.6858 42.976 47.669 43.0926C47.6523 43.2093 47.6761 43.3278 47.7365 43.4286C48.4148 44.5815 48.7183 45.768 48.6471 46.9881C48.5819 48.0856 48.2052 49.109 47.517 50.0582C47.0661 50.6811 46.5233 51.217 45.8885 51.6659C45.3071 52.0772 44.6279 52.3936 43.8507 52.6151C40.6927 53.5148 38.112 52.5656 36.1088 49.7675C35.037 48.2685 34.7918 46.6055 35.3732 44.7783C35.7628 43.5562 36.4332 42.5694 37.3843 41.8179C39.8206 39.8919 42.4457 39.6368 45.2597 41.0527C45.3367 41.0915 45.4239 41.1056 45.5089 41.0928C45.594 41.08 45.6727 41.0411 45.7343 40.9815C47.5516 39.2274 49.453 37.5169 51.4384 35.8499C52.2689 35.1518 53.049 34.4508 53.7787 33.7468C53.823 33.7051 53.8523 33.6499 53.8619 33.5898C53.8716 33.5297 53.8611 33.4681 53.8321 33.4146C52.527 31.0278 52.527 28.7546 53.8321 26.5952C53.8726 26.5285 53.8877 26.4494 53.8747 26.3721C53.8616 26.2948 53.8213 26.2246 53.7609 26.174C51.0656 23.9038 48.4237 21.52 45.8351 19.0224C45.7743 18.964 45.6969 18.9258 45.6136 18.9131C45.5302 18.9003 45.4449 18.9137 45.3694 18.9512C43.0518 20.1021 40.8776 20.1703 38.8467 19.1559C37.8263 18.6477 36.9938 17.9615 36.3491 17.0973C35.6491 16.158 35.2605 15.1099 35.1834 13.9531C35.0825 12.4462 35.4869 11.0798 36.3966 9.85375C37.0215 9.01332 37.8144 8.35283 38.7755 7.8723C39.6575 7.4333 40.6324 7.19007 41.7002 7.14261C43.7706 7.05362 45.4831 7.72201 46.8377 9.14778C47.8423 10.2038 48.4425 11.3784 48.6382 12.6717C48.8498 14.0619 48.5581 15.4342 47.7632 16.7888C47.7231 16.8566 47.708 16.9366 47.7204 17.0155C47.7328 17.0943 47.772 17.1671 47.8314 17.2219Z" fill="#07186C"/>
<path d="M182.849 38.0568C185.119 35.9033 187.299 33.5768 189.389 31.0772C189.648 30.7687 189.979 30.6145 190.38 30.6145H194.138C194.548 30.6145 194.617 30.7668 194.346 31.0713C193.177 32.3844 192.061 33.7053 190.997 35.0342C190.155 36.0882 189.259 37.0898 188.31 38.039C188.268 38.08 188.243 38.134 188.237 38.1919C188.231 38.2497 188.245 38.3078 188.277 38.3564L194.93 48.4119C195.061 48.6097 195.008 48.7086 194.773 48.7086C193.687 48.7086 192.654 48.7086 191.673 48.7086C191.661 48.7086 191.478 48.7204 191.124 48.7442C190.517 48.7857 190.046 48.5454 189.71 48.0234C188.226 45.7117 186.692 43.4346 185.106 41.1921C185.083 41.1595 185.048 41.1371 185.009 41.1299C184.97 41.1226 184.93 41.1312 184.898 41.1536C184.04 41.7448 183.322 42.4735 182.745 43.3397C182.695 43.4149 182.669 43.5092 182.671 43.6096L182.718 48.2636C182.719 48.3218 182.708 48.3795 182.687 48.4333C182.666 48.4871 182.634 48.536 182.594 48.577C182.554 48.6179 182.506 48.6502 182.453 48.6718C182.401 48.6934 182.345 48.7039 182.288 48.7026L177.922 48.6255C177.882 48.6255 177.843 48.6086 177.815 48.5786C177.786 48.5486 177.77 48.5078 177.77 48.4653L177.735 24.0443C177.734 23.9638 177.766 23.8862 177.823 23.8284C177.88 23.7707 177.958 23.7374 178.04 23.7358L182.252 23.6676C182.311 23.6664 182.369 23.6767 182.424 23.6979C182.478 23.7191 182.528 23.7507 182.57 23.791C182.612 23.8313 182.645 23.8794 182.668 23.9326C182.691 23.9857 182.703 24.0429 182.703 24.1006L182.739 38.0093C182.739 38.1102 182.776 38.126 182.849 38.0568Z" fill="#07186C"/>
<path d="M13.6188 42.0763C13.4388 42.2681 13.2312 42.452 12.9959 42.628C12.6538 42.885 12.5925 43.1965 12.812 43.5623C13.8976 45.3737 13.8986 47.4076 12.8149 49.6639C12.7586 49.7826 12.7398 49.915 12.761 50.0426C12.7823 50.1702 12.8426 50.2867 12.9336 50.3758L20.5093 57.8033C20.5395 57.8326 20.5786 57.8515 20.6211 57.8573C20.6637 57.8632 20.7076 57.8557 20.7466 57.8359C22.6431 56.859 24.6018 56.6593 26.6228 57.2367C27.3268 57.4384 27.9497 57.7805 28.4915 58.263C28.9206 58.6467 29.3744 59.1766 29.853 59.8529C31.4627 62.133 31.4053 64.505 29.681 66.9689C28.2987 68.9464 26.341 69.8165 23.8078 69.5792C20.8198 69.3004 18.8305 67.8835 17.8397 65.3286C17.4719 64.3814 17.3246 63.5054 17.3978 62.7005C17.4788 61.8166 17.7834 60.9475 18.3114 60.0932C18.3702 59.9985 18.3947 59.8865 18.3806 59.7762C18.3666 59.6659 18.3149 59.5641 18.2342 59.4881C17.4452 58.7327 16.7027 57.9872 16.0066 57.2515C14.2565 55.4125 12.4491 53.6792 10.5843 52.0517C10.5346 52.0091 10.473 51.9826 10.4079 51.9757C10.3427 51.9688 10.277 51.9819 10.2195 52.0132C8.47532 52.9722 6.65108 53.2056 4.74675 52.7132C3.53455 52.3988 2.59227 51.8579 1.91993 51.0907C-0.516344 48.3083 -0.634005 45.4172 1.56694 42.4174C2.03363 41.7806 2.60216 41.2892 3.27253 40.9432C3.86974 40.6386 4.56581 40.4102 5.36076 40.2579C6.42268 40.0562 7.49151 40.1284 8.56727 40.4745C9.1704 40.6703 9.7775 40.8552 10.3885 41.0292C10.4328 41.0417 10.4794 41.0429 10.5236 41.0325C10.5677 41.0221 10.6081 41.0005 10.6407 40.9698L18.3944 33.756C18.439 33.7149 18.4689 33.6603 18.4796 33.6004C18.4903 33.5404 18.4812 33.4784 18.4537 33.4237C17.1407 30.8134 17.1783 28.4879 18.5665 26.4471C19.1538 25.583 19.9655 24.9195 21.0017 24.4568C23.2462 23.4582 25.5332 23.475 27.8627 24.5072C28.2898 24.6951 28.6645 24.9581 28.9869 25.2962C30.9011 27.3034 31.4666 29.5894 30.6835 32.1542C30.4324 32.9748 29.9509 33.7708 29.239 34.542C28.5923 35.246 27.8419 35.7552 26.9876 36.0696C25.0141 36.7993 22.9931 36.6678 20.9246 35.6751C20.8475 35.6383 20.762 35.623 20.6773 35.6308C20.5927 35.6387 20.5121 35.6694 20.4441 35.7196C18.4409 37.2027 16.6878 38.7827 15.1849 40.4597C14.7934 40.8967 14.4651 41.2378 14.2002 41.483C14.0479 41.6254 13.8541 41.8231 13.6188 42.0763Z" fill="#07186C"/>
<path d="M86.6743 43.7818C88.0566 44.4344 89.5288 44.5906 91.0911 44.2505C91.7753 44.1002 92.4644 43.8342 93.1585 43.4526C93.8111 43.0947 94.4261 42.6764 95.0035 42.1979C95.6106 41.6976 95.9003 40.9105 95.8726 39.8367C95.8711 39.7701 95.8435 39.7068 95.7958 39.6602C95.7482 39.6136 95.6842 39.5876 95.6175 39.5876H91.3313C91.2768 39.5876 91.2228 39.5768 91.1724 39.556C91.122 39.5351 91.0762 39.5045 91.0377 39.4659C90.9991 39.4274 90.9685 39.3816 90.9477 39.3312C90.9268 39.2808 90.916 39.2268 90.916 39.1723V36.5413C90.916 36.4442 90.9537 36.3511 91.021 36.2822C91.0882 36.2133 91.1795 36.1742 91.275 36.1734L99.3639 36.1052C99.4237 36.1048 99.4831 36.1162 99.5385 36.1387C99.5939 36.1612 99.6443 36.1943 99.6867 36.2362C99.7292 36.2781 99.7629 36.328 99.7859 36.3829C99.8089 36.4378 99.8207 36.4966 99.8207 36.5561L99.8296 48.3143C99.8296 48.4189 99.7868 48.5192 99.7106 48.5932C99.6344 48.6672 99.531 48.7088 99.4232 48.7088H96.3561C96.0041 48.7088 95.8321 48.512 95.84 48.1185L95.8756 46.5553C95.8835 46.2488 95.7698 46.2053 95.5345 46.4248C94.2076 47.6765 92.6434 48.4378 90.8419 48.7088C89.5723 48.9006 88.0704 48.8452 86.3362 48.5427C85.2485 48.3528 84.243 47.9197 83.3195 47.2434C82.6155 46.7273 81.8314 45.9877 80.9673 45.0247C79.1401 42.9859 78.0712 40.6287 77.7608 37.9532C77.5215 35.8946 77.7489 33.9507 78.443 32.1216C79.2281 30.0491 80.549 28.1933 82.4059 26.5539C83.3887 25.6878 84.417 25.0896 85.4908 24.7593C86.2501 24.524 87.402 24.3727 88.9465 24.3055C90.3307 24.2462 91.712 24.3342 93.0903 24.5695C94.2629 24.7692 95.2784 25.2438 96.1366 25.9933C96.4847 26.2998 96.9444 26.7754 97.5159 27.4201C97.953 27.9125 98.3534 28.4405 98.7172 29.004C98.919 29.3185 98.8616 29.6032 98.5452 29.8583L95.8074 32.0652C95.7751 32.091 95.738 32.1101 95.6985 32.1213C95.659 32.1325 95.6181 32.1356 95.5783 32.1303C95.5386 32.1249 95.5009 32.1114 95.4678 32.0904C95.4347 32.0695 95.4069 32.0417 95.3862 32.0088C94.1898 30.1006 92.6019 28.9773 90.6224 28.6392C88.7952 28.3267 87.1371 28.6669 85.648 29.6596C84.0976 30.6938 83.1346 32.2728 82.7589 34.3967C82.5928 35.332 82.5681 36.5432 82.6847 38.0303C82.7836 39.2979 83.2048 40.4517 83.9484 41.4919C84.6682 42.4984 85.5768 43.2618 86.6743 43.7818Z" fill="#07186C"/>
<path d="M151.226 28.7812L151.279 48.2605C151.279 48.3197 151.267 48.3783 151.245 48.4329C151.223 48.4874 151.191 48.5369 151.15 48.5783C151.109 48.6198 151.06 48.6523 151.007 48.6742C150.954 48.696 150.897 48.7066 150.84 48.7055L146.717 48.6283C146.651 48.6268 146.588 48.598 146.542 48.5481C146.496 48.4982 146.471 48.4312 146.471 48.3614L146.48 28.8168C146.48 28.7764 146.464 28.7376 146.435 28.7088C146.407 28.6799 146.369 28.6633 146.328 28.6626L139.177 28.6151C138.791 28.6131 138.598 28.4233 138.598 28.0456V24.6789C138.598 24.6403 138.606 24.6022 138.621 24.5665C138.635 24.5309 138.657 24.4985 138.684 24.4713C138.712 24.444 138.744 24.4224 138.78 24.4076C138.815 24.3929 138.853 24.3853 138.892 24.3853H158.834C158.876 24.3852 158.918 24.3938 158.956 24.4104C158.995 24.4271 159.03 24.4514 159.059 24.4821C159.089 24.5128 159.112 24.5492 159.127 24.5891C159.142 24.629 159.15 24.6717 159.148 24.7145L159.048 28.2977C159.045 28.3822 159.011 28.4625 158.951 28.5217C158.891 28.5809 158.811 28.6144 158.727 28.6151L151.368 28.6299C151.33 28.6299 151.294 28.6459 151.267 28.6743C151.241 28.7026 151.226 28.7411 151.226 28.7812Z" fill="#07186C"/>
<path d="M107.313 41.563C107.59 42.88 108.231 43.9063 109.236 44.6419C109.951 45.164 110.755 45.427 111.647 45.431C112.533 45.4349 113.39 45.2243 114.219 44.7991C114.838 44.4808 115.325 44.0131 115.681 43.3961C115.751 43.2758 115.859 43.1822 115.987 43.1301C116.116 43.078 116.257 43.0704 116.39 43.1084L119.736 44.0605C119.784 44.0742 119.829 44.0989 119.866 44.1327C119.904 44.1664 119.933 44.2084 119.951 44.2554C119.97 44.3024 119.978 44.3531 119.974 44.4036C119.97 44.4542 119.954 44.5032 119.929 44.547C119.146 45.8739 118.136 46.921 116.9 47.6883C116.044 48.2182 115.037 48.5643 113.881 48.7264C112.866 48.8668 111.786 48.9104 110.641 48.857C108.802 48.7699 107.217 48.2004 105.887 47.1484C103.466 45.2362 102.209 42.882 102.117 40.0858C102.047 38.0351 102.577 36.1674 103.706 34.4826C104.745 32.9322 106.142 31.8011 107.898 31.0892C109.521 30.4307 111.235 30.2181 113.038 30.4514C115.939 30.8272 118.178 32.2885 119.754 34.8355C120.335 35.7729 120.726 36.7201 120.925 37.6772C121.137 38.6917 121.176 39.7318 121.041 40.7977C121.027 40.909 120.974 41.0115 120.89 41.0858C120.806 41.1601 120.699 41.2011 120.587 41.2011L107.595 41.2189C107.552 41.2189 107.51 41.2285 107.471 41.2467C107.433 41.265 107.399 41.2916 107.372 41.3246C107.345 41.3576 107.325 41.3961 107.315 41.4373C107.305 41.4786 107.305 41.5215 107.313 41.563ZM107.835 36.1555C107.551 36.5629 107.368 36.9712 107.287 37.3806C107.274 37.4435 107.276 37.5085 107.292 37.5708C107.308 37.6331 107.338 37.6912 107.38 37.7408C107.422 37.7905 107.475 37.8305 107.535 37.858C107.595 37.8855 107.66 37.8997 107.726 37.8997L115.761 37.8611C115.803 37.8612 115.845 37.8514 115.883 37.8325C115.921 37.8135 115.953 37.7861 115.978 37.7523C116.003 37.7186 116.019 37.6797 116.025 37.6387C116.031 37.5978 116.027 37.556 116.013 37.517C115.392 35.7768 114.331 34.6655 112.828 34.183C112.082 33.9417 111.359 33.8933 110.659 34.0376C109.896 34.1958 109.236 34.5607 108.678 35.1322C108.375 35.4407 108.094 35.7818 107.835 36.1555Z" fill="#07186C"/>
<path d="M125.129 33.0141C126.495 31.6793 128.127 30.8596 130.026 30.5551C134.633 29.8155 138.041 31.4113 140.248 35.3426C140.825 36.3689 141.152 37.5129 141.229 38.7745C141.445 42.3577 140.117 45.2676 137.246 47.5041C136.538 48.0539 135.804 48.4266 135.045 48.6224C134.6 48.7371 133.801 48.8231 132.648 48.8805C131.24 48.9517 129.979 48.8508 128.866 48.5779C127.545 48.2536 126.376 47.6188 125.36 46.6736C124.431 45.8055 123.74 44.7228 123.29 43.4256C122.641 41.5549 122.504 39.5586 122.877 37.4367C123.192 35.6491 123.942 34.1749 125.129 33.0141ZM131.856 44.919C133.089 44.9491 134.284 44.4294 135.179 43.4742C136.075 42.5189 136.597 41.2064 136.63 39.8254C136.647 39.1416 136.543 38.4615 136.325 37.8241C136.107 37.1866 135.779 36.6042 135.359 36.1101C134.94 35.616 134.437 35.22 133.879 34.9445C133.322 34.669 132.721 34.5196 132.111 34.5047C130.878 34.4745 129.683 34.9943 128.788 35.9495C127.893 36.9047 127.371 38.2172 127.337 39.5983C127.32 40.2821 127.424 40.9621 127.642 41.5996C127.86 42.2371 128.188 42.8195 128.608 43.3136C129.028 43.8076 129.53 44.2037 130.088 44.4792C130.645 44.7546 131.246 44.9041 131.856 44.919Z" fill="#07186C"/>
<path d="M170.216 43.1856C170.253 43.1343 170.305 43.0956 170.364 43.0748C170.424 43.0541 170.488 43.0524 170.548 43.07L174.069 44.0755C174.11 44.0877 174.147 44.109 174.179 44.1378C174.21 44.1666 174.235 44.2023 174.251 44.242C174.266 44.2817 174.273 44.3245 174.269 44.3671C174.266 44.4096 174.253 44.4509 174.232 44.4878C172.81 46.9043 170.77 48.336 168.112 48.7829C167.07 48.9589 165.878 48.9738 164.535 48.8274C163.222 48.6851 162.092 48.3548 161.145 47.8367C158.797 46.5513 157.289 44.5185 156.618 41.7381C156.332 40.5516 156.287 39.3661 156.485 38.1816C156.667 37.0979 157.087 36.0172 157.745 34.9395C159.387 32.2521 161.733 30.7492 164.784 30.4308C166.88 30.2113 168.794 30.5554 170.524 31.4631C172.581 32.5428 174.057 34.2563 174.953 36.6036C175.307 37.531 175.456 38.584 175.4 39.7626C175.4 39.7764 175.406 40.0058 175.418 40.4508C175.434 41.0262 175.145 41.2952 174.552 41.2576C174.186 41.2339 173.997 41.222 173.986 41.222C169.91 41.2457 165.873 41.2269 161.874 41.1656C161.831 41.1647 161.788 41.1736 161.749 41.1916C161.709 41.2096 161.674 41.2363 161.647 41.2697C161.619 41.303 161.599 41.3422 161.589 41.3843C161.579 41.4264 161.578 41.4703 161.587 41.5127C161.895 43.0097 162.692 44.1665 163.978 44.9832C164.557 45.349 165.219 45.5122 165.965 45.4726C166.629 45.437 167.275 45.2966 167.902 45.0514C168.8 44.6994 169.571 44.0775 170.216 43.1856ZM162.488 35.6039C162.004 36.1814 161.679 36.8428 161.513 37.5883C161.504 37.6237 161.505 37.6605 161.513 37.6958C161.521 37.7312 161.538 37.7642 161.561 37.7925C161.584 37.8208 161.613 37.8435 161.646 37.859C161.68 37.8745 161.716 37.8824 161.753 37.882L170.049 37.8108C170.091 37.8105 170.132 37.8003 170.169 37.7813C170.206 37.7623 170.238 37.7348 170.262 37.7013C170.287 37.6677 170.303 37.629 170.309 37.5882C170.315 37.5474 170.312 37.5058 170.299 37.4667C169.482 35.0542 167.847 33.9043 165.395 34.017C164.792 34.0447 164.258 34.1989 163.794 34.4797C163.301 34.7783 162.866 35.1531 162.488 35.6039Z" fill="#07186C"/>
<path d="M31.2086 51.1647C33.5143 53.334 35.7489 55.4766 37.9123 57.5925C38.0033 57.6809 38.1195 57.7389 38.2449 57.7586C38.3702 57.7782 38.4986 57.7586 38.6123 57.7023C40.8627 56.585 43.0805 56.5988 45.2656 57.7438C45.3385 57.782 45.4215 57.7965 45.5034 57.7854C45.5852 57.7742 45.6617 57.7379 45.7224 57.6815L53.8588 50.1977C53.8887 50.1702 53.9079 50.1328 53.9128 50.092C53.9176 50.0513 53.908 50.0099 53.8855 49.9752C52.4261 47.7585 52.4162 45.5377 53.8558 43.313C54.9118 41.6836 56.303 40.6948 58.0293 40.3468C59.6528 40.0205 61.222 40.2331 62.7367 40.9846C64.4413 41.8309 65.6031 43.2686 66.2221 45.2975C66.6393 46.6619 66.4861 47.9908 65.7623 49.2841C64.8744 50.874 63.5673 51.9606 61.8409 52.544C59.8694 53.2124 57.9304 53.0611 56.0241 52.0901C55.9607 52.058 55.8886 52.0464 55.818 52.0571C55.7473 52.0677 55.6815 52.1 55.6296 52.1495L47.8581 59.5354C47.7718 59.6174 47.7207 59.7296 47.7157 59.8482C47.7107 59.9668 47.7522 60.0823 47.8314 60.1702C48.3099 60.7021 48.5977 61.3537 48.6946 62.1249C48.8132 63.0524 48.7519 63.9472 48.5106 64.8094C48.2852 65.6221 47.8709 66.3914 47.2678 67.1171C45.9706 68.6813 44.3362 69.5089 42.3646 69.5999C40.6857 69.677 39.2154 69.2716 37.9538 68.3837C36.6032 67.4365 35.7192 66.0582 35.302 64.2488C34.9381 62.6707 35.1912 61.2904 36.0613 60.1079C36.1244 60.0224 36.1538 59.9163 36.144 59.8094C36.1342 59.7024 36.0858 59.6019 36.008 59.5265L28.2868 52.0783C28.2547 52.0479 28.2147 52.0278 28.1722 52.0209C28.1296 52.014 28.0868 52.0206 28.0495 52.0397C26.9817 52.5776 26.0364 52.8762 25.2138 52.9355C22.6193 53.1234 20.5875 52.366 19.1182 50.6634C18.1235 49.5125 17.5738 48.2518 17.469 46.8814C17.3918 45.8472 17.5965 44.8575 18.083 43.9122C18.5141 43.0718 19.1419 42.3233 19.9665 41.6668C21.8432 40.1718 24.0629 39.7723 26.6257 40.4684C27.3811 40.6741 28.0298 41.0271 28.5716 41.5274C29.0462 41.9683 29.504 42.525 29.945 43.1974C30.3761 43.8499 30.6964 44.6053 30.906 45.4636C31.2897 47.0416 31.0098 48.4694 30.0666 49.7468C30.0063 49.828 29.9806 49.9296 29.995 50.0297C30.0095 50.1297 30.0629 50.22 30.1437 50.2807C30.5352 50.5695 30.8902 50.8641 31.2086 51.1647Z" fill="#07186C"/>
</svg>
