<svg width="100" height="100" viewBox="0 0 100 100" fill="none" xmlns="http://www.w3.org/2000/svg">
<path d="M40 75L15 50L22.05 42.9L40 60.85L77.95 22.9L85 30M50 0C43.4339 0 36.9321 1.29329 30.8658 3.80602C24.7995 6.31876 19.2876 10.0017 14.6447 14.6447C5.26784 24.0215 0 36.7392 0 50C0 63.2608 5.26784 75.9785 14.6447 85.3553C19.2876 89.9983 24.7995 93.6812 30.8658 96.194C36.9321 98.7067 43.4339 100 50 100C63.2608 100 75.9785 94.7322 85.3553 85.3553C94.7322 75.9785 100 63.2608 100 50C100 43.4339 98.7067 36.9321 96.194 30.8658C93.6812 24.7995 89.9983 19.2876 85.3553 14.6447C80.7124 10.0017 75.2005 6.31876 69.1342 3.80602C63.0679 1.29329 56.5661 0 50 0Z" fill="#07186C"/>
</svg>
